<svg xmlns="http://www.w3.org/2000/svg" width="34.37" height="32.482" viewBox="0 0 34.37 32.482">
  <g id="Group_9371" data-name="Group 9371" transform="translate(-95.39 -451.902)">
    <g id="icon-3" transform="translate(95.39 451.902)">
      <path id="Path_1128" data-name="Path 1128" d="M31.027,59.218H25.045c-.623,0-1.041-.229-1.038-.96,0-2.987-.037-5.976.037-8.962a5.273,5.273,0,0,1,2.239-4.157c.509-.388,1.064-.705,1.534-1.014.708.5,1.378.951,2.016,1.446a1.186,1.186,0,0,1,.355.611c.43,1.711.842,3.429,1.251,5.146a1.141,1.141,0,0,1,.06.592c-.74,1.984-.389,4.056-.469,6.092C31.014,58.377,31.027,58.756,31.027,59.218Z" transform="translate(-23.998 -31.621)" fill="#ccc"/>
      <path id="Path_1129" data-name="Path 1129" d="M39.009,30.736c-.7.641-1.339,1.263-2.019,1.832a.742.742,0,0,1-.674.111Q34.907,31.887,33.558,31c-.614-.406-1.117-.3-1.264.429a1.882,1.882,0,0,1-1.613,1.539c-.733.153-1.482.174-2.213.252A5.6,5.6,0,0,1,32.3,26.9C35.129,26.052,37.916,27.648,39.009,30.736Z" transform="translate(-25.238 -26.667)" fill="#ccc"/>
      <path id="Path_1130" data-name="Path 1130" d="M29.484,37.308c1.613-.153,3.166-.345,4.188-1.861l2.368,1.3c-.157,1.707-.311,3.375-.468,5.077C32.685,42.891,29.839,40.862,29.484,37.308Z" transform="translate(-25.555 -29.158)" fill="#ccc"/>
      <path id="Path_1131" data-name="Path 1131" d="M34.891,47.029h1.528c-.232.98-.453,1.92-.674,2.861l-.132.023C35.377,48.965,35.139,48.018,34.891,47.029Z" transform="translate(-27.09 -32.446)" fill="#ccc"/>
      <path id="Path_1132" data-name="Path 1132" d="M38.549,49.094c.214-.884.377-1.554.586-2.453l.587,1.627Z" transform="translate(-28.129 -32.335)" fill="#ccc"/>
      <path id="Path_1133" data-name="Path 1133" d="M61.978,59.231c0-1.2.06-2.317-.016-3.421-.088-1.252-.3-2.494-.452-3.743a1.728,1.728,0,0,1,0-.589c.414-1.771.833-3.539,1.274-5.3a1.148,1.148,0,0,1,.374-.6c.62-.482,1.271-.916,1.953-1.407a6.324,6.324,0,0,1,3.9,6.248C68.955,52.894,69,55.385,69,57.869c0,1.153-.205,1.359-1.333,1.36h-4.9Z" transform="translate(-34.64 -31.633)" fill="#ccc"/>
      <path id="Path_1134" data-name="Path 1134" d="M63.24,33.244c-.848-.127-1.713-.2-2.548-.4A1.687,1.687,0,0,1,59.4,31.45c-.166-.762-.651-.879-1.305-.435-.852.577-1.74,1.1-2.614,1.641a.608.608,0,0,1-.88-.153c-.6-.621-1.267-1.174-1.906-1.757A5.319,5.319,0,0,1,62.4,29.2,5.866,5.866,0,0,1,63.24,33.244Z" transform="translate(-32.145 -26.664)" fill="#ccc"/>
      <path id="Path_1135" data-name="Path 1135" d="M59.576,35.447c1,1.495,2.566,1.724,4.157,1.85-.21,3.4-2.87,5.543-6.175,4.482,0-.815.059-1.653-.016-2.478s-.282-1.633-.44-2.484Z" transform="translate(-33.396 -29.158)" fill="#ccc"/>
      <path id="Path_1136" data-name="Path 1136" d="M60.394,47.059l-.7,2.862h-.126c-.227-.939-.456-1.876-.692-2.862Z" transform="translate(-33.899 -32.454)" fill="#ccc"/>
      <path id="Path_1137" data-name="Path 1137" d="M56.868,49.12c-.462-.287-.8-.5-1.173-.733.177-.507.343-.972.507-1.44l.136-.021C56.5,47.61,56.669,48.3,56.868,49.12Z" transform="translate(-32.996 -32.416)" fill="#ccc"/>
      <path id="Path_1138" data-name="Path 1138" d="M41.434,52.092c.246.272.412.371.44.5,1.026,4.381,2.54,8.689,1.749,13.434H37.365c-1.242,0-1.414-.183-1.414-1.507,0-2.508.018-5.016,0-7.524a6.206,6.206,0,0,1,3.919-6.047V56.07a2.2,2.2,0,0,1-.5,1.794,1.556,1.556,0,0,0,1.345,2.447,1.586,1.586,0,0,0,1.133-2.58,1.683,1.683,0,0,1-.419-1.293C41.443,55.061,41.434,53.679,41.434,52.092Z" transform="translate(-27.391 -33.559)" fill="#fff"/>
      <path id="Path_1139" data-name="Path 1139" d="M49.138,66.021c-.777-4.752.752-9.068,1.779-13.453.025-.11.191-.185.419-.392,0,1.441.013,2.72-.018,4,0,.165-.21.369-.371.478a2.438,2.438,0,0,0-1.142,2.157V61.1c0,.539.252.893.787.879.493-.012.733-.353.733-.858V59.143c.009-.8.293-1.243.815-1.189.666.07.78.566.764,1.159-.018.658-.009,1.317,0,1.985,0,.536.262.888.789.891a.756.756,0,0,0,.762-.843c.021-.861.035-1.725-.022-2.583a2.353,2.353,0,0,0-1.128-1.856c-.163-.108-.386-.305-.389-.458-.028-1.71-.016-3.421-.016-5.163a5.861,5.861,0,0,1,3.909,5.792c.012,2.636,0,5.273,0,7.909,0,1.058-.229,1.291-1.251,1.293H49.713C49.508,66.059,49.3,66.032,49.138,66.021Z" transform="translate(-31.075 -33.597)" fill="#fff"/>
      <path id="Path_1140" data-name="Path 1140" d="M50.614,40.091c-2.3-.027-4.44-.305-6.159-2.023-.478-.476-.815-.382-1.1.267a2.294,2.294,0,0,1-2.716,1.623c-.161-2.349-.235-4.723,2.038-6.126a5.359,5.359,0,0,1,5.9,0C50.856,35.252,50.779,37.627,50.614,40.091Z" transform="translate(-28.703 -28.447)" fill="#fff"/>
      <path id="Path_1141" data-name="Path 1141" d="M40.909,44.1a4.422,4.422,0,0,0,3.427-1.832,26.312,26.312,0,0,0,3,1.343,24.588,24.588,0,0,0,3.141.572,4.878,4.878,0,0,1-4.1,4.648A5.1,5.1,0,0,1,40.909,44.1Z" transform="translate(-28.799 -31.093)" fill="#fff"/>
      <path id="Path_1142" data-name="Path 1142" d="M47.637,58.065c-.147-.623-.293-1.244-.452-1.9h1.094l-.46,1.908Z" transform="translate(-30.581 -35.039)" fill="#fff"/>
    </g>
  </g>
</svg>
